#!OML:ASF H:\Male1\Project 1\Capture day 1\Session 1\Male1.ASF
:FULLY-SPECIFIED
:DEGREES
528
root -5.40834 15.0789 9.53989 -0.0127719 144.726 -359.796
lowerback 9.12152 3.19334 2.71512
upperback 4.60466 4.75384 -1.10806
thorax -0.00997986 2.56732 -3.07709
lowerneck 0.211633 10.8879 15.1674
upperneck -7.16025 14.4082 -15.4407
head 0.136617 7.32577 -6.81252
rclavicle 3.89866e-014 -2.4699e-014
rhumerus -40.4422 -7.81583 -79.8817
rradius 40.5381
rwrist -24.2306
rhand -24.1568 -0.460086
rfingers 7.12502
rthumb 2.32593 -30.4272
lclavicle 3.89866e-014 -2.4699e-014
lhumerus -36.9702 28.2148 62.4758
lradius 27.8741
lwrist -8.82967
lhand -19.445 10.2665
lfingers 7.12502
lthumb 6.87561 40.1348
rfemur 10.9778 -0.946631 28.8355
rtibia 21.2012
rfoot -33.8463 -30.9267
rtoes -21.5538
lfemur -21.4182 -7.1328 -21.9696
ltibia 34.6674
lfoot -18.2965 23.3513
ltoes -0.987249
529
root -5.3264 15.1022 9.38532 0.282493 144.796 -359.516
lowerback 8.73075 3.24918 2.5972
upperback 4.44951 4.79077 -1.0982
thorax 0.0350871 2.57364 -2.98265
lowerneck 0.281065 10.9082 15.9352
upperneck -6.95224 14.4552 -16.0246
head 0.300649 7.34392 -7.09297
rclavicle -7.45691e-014 6.95746e-016
rhumerus -40.759 -7.84841 -79.8801
rradius 40.6214
rwrist -24.2473
rhand -24.4349 -0.286739
rfingers 7.12502
rthumb 2.05738 -30.2566
lclavicle -7.45691e-014 6.95746e-016
lhumerus -37.1803 29.4773 62.1272
lradius 27.0058
lwrist -9.21708
lhand -19.4762 10.6757
lfingers 7.12502
lthumb 6.84546 40.545
rfemur 9.81077 -2.60034 28.0826
rtibia 24.3139
rfoot -30.4733 -29.494
rtoes -24.921
lfemur -20.5238 -6.5088 -21.96
ltibia 34.203
lfoot -18.0792 23.375
ltoes -4.87424
530
root -5.24255 15.1325 9.22952 0.43327 144.87 -359.365
lowerback 8.34793 3.26571 2.28266
upperback 4.33849 4.76646 -1.0536
thorax 0.0981386 2.54832 -2.73755
lowerneck 1.60732 10.648 16.3258
upperneck -8.30179 14.2082 -16.7385
head -0.251641 7.29186 -7.52713
rclavicle -5.3647e-014 4.87022e-015
rhumerus -40.9109 -7.58565 -79.8838
rradius 40.5401
rwrist -24.3385
rhand -24.6737 -0.0929263
rfingers 7.12502
rthumb 1.82671 -30.0649
lclavicle -5.3647e-014 4.87022e-015
lhumerus -37.5182 29.9057 62.3171
lradius 26.8529
lwrist -8.51946
lhand -19.282 12.0594
lfingers 7.12502
lthumb 7.03294 41.9226
rfemur 8.21104 -3.92929 27.1683
rtibia 28.1167
rfoot -27.0118 -28.1073
rtoes -26.7924
lfemur -19.345 -6.52154 -22.0487
ltibia 33.4189
lfoot -18.3349 23.5221
ltoes -5.42975
531
root -5.16338 15.1491 9.08041 0.352384 145.017 -359.232
lowerback 8.26228 3.19682 1.83414
upperback 4.28373 4.63499 -0.884022
thorax 0.0292349 2.46828 -2.30162
lowerneck 0.543003 11.0302 15.5274
upperneck -6.89209 14.6474 -15.4788
head 0.226078 7.43727 -6.86833
rclavicle -1.16339e-013 2.27608e-014
rhumerus -41.0044 -7.17843 -79.736
rradius 40.4934
rwrist -24.1973
rhand -24.9316 0.0913504
rfingers 7.12502
rthumb 1.5776 -29.8826
lclavicle -1.16339e-013 2.27608e-014
lhumerus -37.7877 30.9657 62.4106
lradius 26.2723
lwrist -8.17983
lhand -19.2626 13.075
lfingers 7.12502
lthumb 7.05169 42.9376
rfemur 6.6445 -5.38103 26.2377
rtibia 32.3059
rfoot -23.3084 -26.7458
rtoes -29.2998
lfemur -17.9341 -7.39771 -22.159
ltibia 32.5152
lfoot -18.836 24.1757
ltoes -4.26546
532
root -5.08171 15.1754 8.93319 -0.00296552 145.276 -359.516
lowerback 8.35574 3.16122 1.15035
upperback 4.20815 4.53587 -0.904177
thorax -0.157302 2.40424 -1.94564
lowerneck 0.54234 11.0906 15.6723
upperneck -6.70962 14.7367 -15.4613
head 0.301534 7.4739 -6.86974
rclavicle -2.27111e-014 1.07344e-014
rhumerus -41.1894 -7.22643 -79.5784
rradius 40.5405
rwrist -23.9711
rhand -25.1751 0.313851
rfingers 7.12502
rthumb 1.34249 -29.6617
lclavicle -2.27111e-014 1.07344e-014
lhumerus -37.7706 32.8347 61.9465
lradius 24.9312
lwrist -9.26634
lhand -19.1755 12.7851
lfingers 7.12502
lthumb 7.13576 42.6448
rfemur 4.72424 -6.53583 24.9843
rtibia 36.8316
rfoot -20.2199 -24.9934
rtoes -28.9274
lfemur -16.3899 -8.50538 -22.6535
ltibia 31.4349
lfoot -19.3815 24.848
ltoes -3.15477
533
root -5.00278 15.1932 8.78889 -0.534564 145.621 -360.217
lowerback 8.436 3.19413 0.33169
upperback 4.14372 4.51993 -1.17812
thorax -0.308697 2.38723 -1.7798
lowerneck 0.504447 11.0621 15.3766
upperneck -6.82821 14.6866 -14.6894
head 0.173476 7.43427 -6.60326
rclavicle -4.61677e-014 -1.70955e-014
rhumerus -41.3612 -7.79068 -79.5093
rradius 40.6008
rwrist -23.8278
rhand -25.6261 0.759273
rfingers 7.12502
rthumb 0.906836 -29.2185
lclavicle -4.61677e-014 -1.70955e-014
lhumerus -37.3569 33.6871 61.9942
lradius 23.9572
lwrist -10.146
lhand -19.0495 12.5237
lfingers 7.12502
lthumb 7.25735 42.3793
rfemur 2.59129 -7.64493 23.3949
rtibia 41.5077
rfoot -16.6556 -23.2495
rtoes -28.9888
lfemur -14.8599 -9.60827 -23.5325
ltibia 30.2712
lfoot -20.3113 25.2029
ltoes -0.488329
534
root -4.9221 15.21 8.65036 -1.11324 145.851 -360.827
lowerback 8.58789 3.15716 -0.594448
upperback 4.16103 4.40888 -1.3133
thorax -0.43498 2.32432 -1.40539
lowerneck 0.544961 11.1207 15.9839
upperneck -6.83036 14.7735 -15.0811
head 0.25853 7.47486 -6.80371
rclavicle -3.03644e-014 2.78299e-015
rhumerus -41.5048 -8.27778 -79.3104
rradius 40.8727
rwrist -23.4849
rhand -25.8129 0.830813
rfingers 7.12502
rthumb 0.726425 -29.1477
lclavicle -3.03644e-014 2.78299e-015
lhumerus -36.9485 34.1837 62.5137
lradius 23.4102
lwrist -10.8576
lhand -18.9623 12.5758
lfingers 7.12502
lthumb 7.34158 42.4284
rfemur 0.399733 -8.44039 22.0021
rtibia 46.1603
rfoot -12.525 -22.101
rtoes -28.222
lfemur -13.1028 -10.4533 -24.3208
ltibia 28.9146
lfoot -21.428 25.2569
ltoes 3.52663
535
root -4.83797 15.2215 8.51687 -1.70593 146.022 -361.313
lowerback 8.83101 3.11152 -1.51022
upperback 4.23674 4.28947 -1.38328
thorax -0.550896 2.26017 -0.971964
lowerneck 0.544316 11.2338 15.9905
upperneck -6.84552 14.9246 -14.9304
head 0.263237 7.54577 -6.7482
rclavicle -2.3059e-014 -8.34896e-015
rhumerus -41.35 -8.15942 -79.3722
rradius 40.8259
rwrist -23.7618
rhand -25.5078 0.164925
rfingers 7.12502
rthumb 1.02116 -29.8124
lclavicle -2.3059e-014 -8.34896e-015
lhumerus -36.2429 34.3599 63.3583
lradius 22.8691
lwrist -11.6992
lhand -18.9757 12.3607
lfingers 7.12502
lthumb 7.32862 42.2138
rfemur -1.71595 -9.24301 20.7778
rtibia 50.4387
rfoot -10.7587 -20.6057
rtoes -31.3092
lfemur -11.3056 -10.734 -25.011
ltibia 27.5496
lfoot -21.4538 25.5949
ltoes 3.34219
536
root -4.7526 15.2235 8.38252 -2.4593 146.368 -362.107
lowerback 9.07883 3.02982 -2.50935
upperback 4.31808 4.11595 -1.57226
thorax -0.654442 2.17221 -0.60841
lowerneck 0.611308 11.3073 15.9986
upperneck -6.88479 15.03 -14.7837
head 0.243507 7.5956 -6.7033
rclavicle -5.57094e-014 1.23246e-014
rhumerus -41.3474 -8.31849 -79.4055
rradius 40.9454
rwrist -23.8419
rhand -23.4707 -1.85705
rfingers 7.12502
rthumb 2.98851 -31.8159
lclavicle -5.57094e-014 1.23246e-014
lhumerus -35.1063 33.2186 64.9886
lradius 22.6353
lwrist -11.6584
lhand -19.1684 12.5194
lfingers 7.12502
lthumb 7.14262 42.3789
rfemur -3.77045 -10.1064 19.3158
rtibia 54.2588
rfoot -10.7435 -19.4451
rtoes -31.4945
lfemur -9.54048 -10.6786 -26.0011
ltibia 26.1322
lfoot -20.4372 26.1308
ltoes -0.648454
537
root -4.64588 15.239 8.25556 -2.89169 146.476 -362.08
lowerback 9.4467 2.96406 -3.10792
upperback 4.39918 3.98185 -1.49471
thorax -0.812986 2.10405 -0.202995
lowerneck 0.941045 11.367 15.5301
upperneck -7.25274 15.1362 -14.2512
head 0.0145366 7.65589 -6.50784
rclavicle -2.21148e-014 -4.77083e-015
rhumerus -41.2923 -8.24068 -79.5056
rradius 40.9454
rwrist -23.8769
rhand -24.1824 -1.5987
rfingers 7.12502
rthumb 2.30122 -31.566
lclavicle -2.21148e-014 -4.77083e-015
lhumerus -33.9372 31.582 66.8486
lradius 22.5917
lwrist -11.4525
lhand -19.1983 12.7924
lfingers 7.12502
lthumb 7.11378 42.6529
rfemur -5.66433 -9.819 19.1988
rtibia 57.392
rfoot -11.8681 -19.3479
rtoes -29.2192
lfemur -7.66236 -10.3755 -26.1096
ltibia 24.757
lfoot -19.8707 26.2432
ltoes -3.0682
538
root -4.55989 15.2601 8.1309 -3.1641 146.791 -362.325
lowerback 9.72948 2.84712 -3.59194
upperback 4.36569 3.77724 -1.58724
thorax -1.01975 2.00302 -0.0259436
lowerneck 1.28384 11.4304 15.9475
upperneck -7.4101 15.2605 -14.5361
head -0.0108958 7.72462 -6.67154
rclavicle 1.33186e-014 1.31198e-014
rhumerus -41.2124 -8.21762 -79.6772
rradius 40.8295
rwrist -23.8599
rhand -23.5709 -2.46595
rfingers 7.12502
rthumb 2.89176 -32.4261
lclavicle 1.33186e-014 1.31198e-014
lhumerus -32.7458 30.0782 68.4754
lradius 22.5074
lwrist -12.2439
lhand -18.5889 12.2228
lfingers 7.12502
lthumb 7.70197 42.0626
rfemur -7.88167 -9.6043 18.8211
rtibia 59.9297
rfoot -12.8531 -19.4028
rtoes -27.4664
lfemur -6.2026 -10.378 -26.4829
ltibia 23.5067
lfoot -19.5838 26.3428
ltoes -4.59481
539
root -4.47904 15.2758 8.00534 -3.11099 147.187 -362.379
lowerback 9.83631 2.78024 -3.67725
upperback 4.3088 3.67483 -1.731
thorax -1.12963 1.95554 -0.123564
lowerneck 1.11745 11.3855 15.8248
upperneck -7.24317 15.1864 -14.1393
head 0.00724953 7.67277 -6.52438
rclavicle -6.77856e-014 1.23246e-014
rhumerus -41.2407 -8.57336 -79.7778
rradius 40.8664
rwrist -23.8515
rhand -23.5379 -2.36488
rfingers 7.12502
rthumb 2.92365 -32.3246
lclavicle -6.77856e-014 1.23246e-014
lhumerus -31.3519 28.1386 70.2168
lradius 22.5962
lwrist -13.1299
lhand -18.0169 11.2943
lfingers 7.12502
lthumb 8.25405 41.113
rfemur -10.2945 -9.62891 18.5697
rtibia 61.8122
rfoot -13.3703 -19.575
rtoes -27.2322
lfemur -5.14097 -11.0082 -26.7223
ltibia 22.6072
lfoot -19.721 26.7975
ltoes -5.6113
